<?xml version="1.0" encoding="UTF-8"?>
<svg xmlns="http://www.w3.org/2000/svg" xmlns:xlink="http://www.w3.org/1999/xlink" viewBox="0 0 26 26" version="1.1" width="26px" height="26px">
<g id="surface1">
<path style=" " d="M 20.199219 0 L 5.800781 0 C 5.359375 0 5 0.363281 5 0.8125 L 5 25.1875 C 5 25.636719 5.359375 26 5.800781 26 L 20.199219 26 C 20.640625 26 21 25.636719 21 25.1875 L 21 0.8125 C 21 0.363281 20.640625 0 20.199219 0 Z M 7 2.777344 C 7 2.347656 7.386719 2 7.855469 2 L 18.140625 2 C 18.613281 2 19 2.347656 19 2.777344 L 19 15.222656 C 19 15.652344 18.613281 16 18.144531 16 L 7.855469 16 C 7.386719 16 7 15.652344 7 15.222656 Z M 11.5 21.144531 L 11.5 19 L 15.25 19 L 15.25 21.144531 Z M 15.25 21.855469 L 15.25 24 L 11.5 24 L 11.5 21.855469 Z M 11.9375 17.5 C 11.9375 16.90625 12.414063 16.425781 13 16.425781 C 13.585938 16.425781 14.0625 16.90625 14.0625 17.5 C 14.0625 18.09375 13.585938 18.574219 13 18.574219 C 12.414063 18.574219 11.9375 18.09375 11.9375 17.5 Z M 7 20.667969 C 7 19.746094 7.785156 19 8.746094 19 L 10.75 19 L 10.75 21.144531 L 7 21.144531 Z M 7 22.332031 L 7 21.855469 L 10.75 21.855469 L 10.75 24 L 8.746094 24 C 7.785156 24 7 23.253906 7 22.332031 Z M 19 22.332031 C 19 23.253906 18.21875 24 17.253906 24 L 16 24 L 16 21.855469 L 19 21.855469 Z M 19 21.144531 L 16 21.144531 L 16 19 L 17.253906 19 C 18.21875 19 19 19.746094 19 20.667969 Z "/>
</g>
</svg>
